<mxfile host="app.diagrams.net" modified="2025-01-29T04:03:25.912Z" agent="Mozilla/5.0 (Windows NT 10.0; Win64; x64) AppleWebKit/537.36 (KHTML, like Gecko) Chrome/132.0.0.0 Safari/537.36" etag="wZJsnFe2-sYriFLRIsCO" version="24.4.4" type="github">
  <diagram name="Page-1" id="LDCwevBWYP7GDwlMyTgj">
    <mxGraphModel dx="1134" dy="637" grid="1" gridSize="10" guides="1" tooltips="1" connect="1" arrows="1" fold="1" page="1" pageScale="1" pageWidth="850" pageHeight="1100" math="0" shadow="0">
      <root>
        <mxCell id="0" />
        <mxCell id="1" parent="0" />
        <mxCell id="6sJl87-KyiJKdT4K7YQF-11" value="Admin" style="whiteSpace=wrap;html=1;align=center;" parent="1" vertex="1">
          <mxGeometry x="681" y="872" width="100" height="40" as="geometry" />
        </mxCell>
        <mxCell id="6sJl87-KyiJKdT4K7YQF-12" value="Question" style="whiteSpace=wrap;html=1;align=center;" parent="1" vertex="1">
          <mxGeometry x="411" y="872" width="100" height="40" as="geometry" />
        </mxCell>
        <mxCell id="6sJl87-KyiJKdT4K7YQF-13" value="create" style="shape=rhombus;perimeter=rhombusPerimeter;whiteSpace=wrap;html=1;align=center;" parent="1" vertex="1">
          <mxGeometry x="551" y="864.5" width="90" height="55" as="geometry" />
        </mxCell>
        <mxCell id="6sJl87-KyiJKdT4K7YQF-14" value="" style="endArrow=none;html=1;rounded=0;shape=link;exitX=1;exitY=0.5;exitDx=0;exitDy=0;entryX=0;entryY=0.5;entryDx=0;entryDy=0;" parent="1" source="6sJl87-KyiJKdT4K7YQF-12" target="6sJl87-KyiJKdT4K7YQF-13" edge="1">
          <mxGeometry relative="1" as="geometry">
            <mxPoint x="521" y="902" as="sourcePoint" />
            <mxPoint x="591" y="917" as="targetPoint" />
          </mxGeometry>
        </mxCell>
        <mxCell id="6sJl87-KyiJKdT4K7YQF-15" value="" style="endArrow=classic;html=1;rounded=0;entryX=0;entryY=0.5;entryDx=0;entryDy=0;" parent="1" target="6sJl87-KyiJKdT4K7YQF-11" edge="1">
          <mxGeometry width="50" height="50" relative="1" as="geometry">
            <mxPoint x="641" y="892" as="sourcePoint" />
            <mxPoint x="681" y="922" as="targetPoint" />
          </mxGeometry>
        </mxCell>
        <mxCell id="6sJl87-KyiJKdT4K7YQF-16" value="create" style="shape=rhombus;perimeter=rhombusPerimeter;whiteSpace=wrap;html=1;align=center;" parent="1" vertex="1">
          <mxGeometry x="686" y="949" width="90" height="55" as="geometry" />
        </mxCell>
        <mxCell id="6sJl87-KyiJKdT4K7YQF-17" value="Task" style="whiteSpace=wrap;html=1;align=center;" parent="1" vertex="1">
          <mxGeometry x="681" y="1042" width="100" height="40" as="geometry" />
        </mxCell>
        <mxCell id="6sJl87-KyiJKdT4K7YQF-18" value="" style="endArrow=none;html=1;rounded=0;shape=link;exitX=0.5;exitY=0;exitDx=0;exitDy=0;entryX=0.5;entryY=1;entryDx=0;entryDy=0;" parent="1" source="6sJl87-KyiJKdT4K7YQF-17" target="6sJl87-KyiJKdT4K7YQF-16" edge="1">
          <mxGeometry relative="1" as="geometry">
            <mxPoint x="646" y="1022" as="sourcePoint" />
            <mxPoint x="686" y="1022" as="targetPoint" />
          </mxGeometry>
        </mxCell>
        <mxCell id="6sJl87-KyiJKdT4K7YQF-19" value="" style="endArrow=classic;html=1;rounded=0;entryX=0.5;entryY=1;entryDx=0;entryDy=0;exitX=0.5;exitY=0;exitDx=0;exitDy=0;" parent="1" source="6sJl87-KyiJKdT4K7YQF-16" target="6sJl87-KyiJKdT4K7YQF-11" edge="1">
          <mxGeometry width="50" height="50" relative="1" as="geometry">
            <mxPoint x="686" y="942" as="sourcePoint" />
            <mxPoint x="726" y="942" as="targetPoint" />
          </mxGeometry>
        </mxCell>
        <mxCell id="6sJl87-KyiJKdT4K7YQF-20" value="review" style="shape=rhombus;perimeter=rhombusPerimeter;whiteSpace=wrap;html=1;align=center;" parent="1" vertex="1">
          <mxGeometry x="830" y="864.5" width="90" height="55" as="geometry" />
        </mxCell>
        <mxCell id="6sJl87-KyiJKdT4K7YQF-21" value="Article" style="whiteSpace=wrap;html=1;align=center;" parent="1" vertex="1">
          <mxGeometry x="966" y="872" width="100" height="40" as="geometry" />
        </mxCell>
        <mxCell id="6sJl87-KyiJKdT4K7YQF-22" value="" style="endArrow=none;html=1;rounded=0;shape=link;exitX=0;exitY=0.5;exitDx=0;exitDy=0;entryX=1;entryY=0.5;entryDx=0;entryDy=0;" parent="1" source="6sJl87-KyiJKdT4K7YQF-21" target="6sJl87-KyiJKdT4K7YQF-20" edge="1">
          <mxGeometry relative="1" as="geometry">
            <mxPoint x="936" y="920" as="sourcePoint" />
            <mxPoint x="936" y="882" as="targetPoint" />
          </mxGeometry>
        </mxCell>
        <mxCell id="6sJl87-KyiJKdT4K7YQF-23" value="" style="endArrow=classic;html=1;rounded=0;exitX=0;exitY=0.5;exitDx=0;exitDy=0;entryX=1;entryY=0.5;entryDx=0;entryDy=0;" parent="1" source="6sJl87-KyiJKdT4K7YQF-20" target="6sJl87-KyiJKdT4K7YQF-11" edge="1">
          <mxGeometry width="50" height="50" relative="1" as="geometry">
            <mxPoint x="736" y="872" as="sourcePoint" />
            <mxPoint x="786" y="822" as="targetPoint" />
          </mxGeometry>
        </mxCell>
        <mxCell id="dPGwyMM_JcIyDgCakg1t-3" style="edgeStyle=orthogonalEdgeStyle;rounded=0;orthogonalLoop=1;jettySize=auto;html=1;exitX=0.25;exitY=1;exitDx=0;exitDy=0;strokeColor=none;" edge="1" parent="1" source="6sJl87-KyiJKdT4K7YQF-25" target="6sJl87-KyiJKdT4K7YQF-72">
          <mxGeometry relative="1" as="geometry" />
        </mxCell>
        <mxCell id="6sJl87-KyiJKdT4K7YQF-25" value="Moderator" style="whiteSpace=wrap;html=1;align=center;" parent="1" vertex="1">
          <mxGeometry x="968" y="1042" width="100" height="40" as="geometry" />
        </mxCell>
        <mxCell id="6sJl87-KyiJKdT4K7YQF-26" value="assigned to" style="shape=rhombus;perimeter=rhombusPerimeter;whiteSpace=wrap;html=1;align=center;" parent="1" vertex="1">
          <mxGeometry x="822" y="1038" width="89" height="50" as="geometry" />
        </mxCell>
        <mxCell id="6sJl87-KyiJKdT4K7YQF-27" value="" style="shape=link;html=1;rounded=0;exitX=1;exitY=0.5;exitDx=0;exitDy=0;entryX=0;entryY=0.5;entryDx=0;entryDy=0;" parent="1" source="6sJl87-KyiJKdT4K7YQF-17" target="6sJl87-KyiJKdT4K7YQF-26" edge="1">
          <mxGeometry width="100" relative="1" as="geometry">
            <mxPoint x="796" y="1102" as="sourcePoint" />
            <mxPoint x="896" y="1102" as="targetPoint" />
          </mxGeometry>
        </mxCell>
        <mxCell id="6sJl87-KyiJKdT4K7YQF-28" value="" style="endArrow=classic;html=1;rounded=0;entryX=0;entryY=0.5;entryDx=0;entryDy=0;" parent="1" target="6sJl87-KyiJKdT4K7YQF-25" edge="1">
          <mxGeometry width="50" height="50" relative="1" as="geometry">
            <mxPoint x="911" y="1062" as="sourcePoint" />
            <mxPoint x="961" y="988" as="targetPoint" />
          </mxGeometry>
        </mxCell>
        <mxCell id="6sJl87-KyiJKdT4K7YQF-30" value="create" style="shape=rhombus;perimeter=rhombusPerimeter;whiteSpace=wrap;html=1;align=center;" parent="1" vertex="1">
          <mxGeometry x="926" y="949" width="90" height="55" as="geometry" />
        </mxCell>
        <mxCell id="6sJl87-KyiJKdT4K7YQF-31" value="update" style="shape=rhombus;perimeter=rhombusPerimeter;whiteSpace=wrap;html=1;align=center;" parent="1" vertex="1">
          <mxGeometry x="1026" y="952" width="90" height="55" as="geometry" />
        </mxCell>
        <mxCell id="6sJl87-KyiJKdT4K7YQF-32" value="" style="endArrow=classic;html=1;rounded=0;entryX=0.25;entryY=0;entryDx=0;entryDy=0;exitX=0.5;exitY=1;exitDx=0;exitDy=0;" parent="1" source="6sJl87-KyiJKdT4K7YQF-30" target="6sJl87-KyiJKdT4K7YQF-25" edge="1">
          <mxGeometry width="50" height="50" relative="1" as="geometry">
            <mxPoint x="836" y="962" as="sourcePoint" />
            <mxPoint x="886" y="912" as="targetPoint" />
          </mxGeometry>
        </mxCell>
        <mxCell id="6sJl87-KyiJKdT4K7YQF-33" value="" style="endArrow=classic;html=1;rounded=0;exitX=0.5;exitY=1;exitDx=0;exitDy=0;entryX=0.75;entryY=0;entryDx=0;entryDy=0;" parent="1" source="6sJl87-KyiJKdT4K7YQF-31" target="6sJl87-KyiJKdT4K7YQF-25" edge="1">
          <mxGeometry width="50" height="50" relative="1" as="geometry">
            <mxPoint x="1013" y="991" as="sourcePoint" />
            <mxPoint x="1016" y="1042" as="targetPoint" />
          </mxGeometry>
        </mxCell>
        <mxCell id="6sJl87-KyiJKdT4K7YQF-34" value="" style="shape=link;html=1;rounded=0;entryX=0.25;entryY=1;entryDx=0;entryDy=0;exitX=0.5;exitY=0;exitDx=0;exitDy=0;" parent="1" source="6sJl87-KyiJKdT4K7YQF-30" target="6sJl87-KyiJKdT4K7YQF-21" edge="1">
          <mxGeometry width="100" relative="1" as="geometry">
            <mxPoint x="816" y="942" as="sourcePoint" />
            <mxPoint x="916" y="942" as="targetPoint" />
          </mxGeometry>
        </mxCell>
        <mxCell id="6sJl87-KyiJKdT4K7YQF-35" value="" style="shape=link;html=1;rounded=0;entryX=0.75;entryY=1;entryDx=0;entryDy=0;exitX=0.5;exitY=0;exitDx=0;exitDy=0;" parent="1" source="6sJl87-KyiJKdT4K7YQF-31" target="6sJl87-KyiJKdT4K7YQF-21" edge="1">
          <mxGeometry width="100" relative="1" as="geometry">
            <mxPoint x="816" y="942" as="sourcePoint" />
            <mxPoint x="916" y="942" as="targetPoint" />
          </mxGeometry>
        </mxCell>
        <mxCell id="6sJl87-KyiJKdT4K7YQF-71" style="edgeStyle=orthogonalEdgeStyle;rounded=0;orthogonalLoop=1;jettySize=auto;html=1;exitX=0.5;exitY=1;exitDx=0;exitDy=0;entryX=0.5;entryY=0;entryDx=0;entryDy=0;" parent="1" source="6sJl87-KyiJKdT4K7YQF-36" target="6sJl87-KyiJKdT4K7YQF-11" edge="1">
          <mxGeometry relative="1" as="geometry" />
        </mxCell>
        <mxCell id="6sJl87-KyiJKdT4K7YQF-36" value="reward" style="shape=rhombus;perimeter=rhombusPerimeter;whiteSpace=wrap;html=1;align=center;" parent="1" vertex="1">
          <mxGeometry x="686" y="628" width="90" height="55" as="geometry" />
        </mxCell>
        <mxCell id="6sJl87-KyiJKdT4K7YQF-37" value="Badge" style="whiteSpace=wrap;html=1;align=center;" parent="1" vertex="1">
          <mxGeometry x="681" y="542" width="100" height="40" as="geometry" />
        </mxCell>
        <mxCell id="6sJl87-KyiJKdT4K7YQF-38" value="" style="shape=link;html=1;rounded=0;exitX=0.5;exitY=1;exitDx=0;exitDy=0;entryX=0.5;entryY=0;entryDx=0;entryDy=0;" parent="1" source="6sJl87-KyiJKdT4K7YQF-37" target="6sJl87-KyiJKdT4K7YQF-36" edge="1">
          <mxGeometry width="100" relative="1" as="geometry">
            <mxPoint x="656" y="655" as="sourcePoint" />
            <mxPoint x="756" y="655" as="targetPoint" />
          </mxGeometry>
        </mxCell>
        <mxCell id="6sJl87-KyiJKdT4K7YQF-40" value="User" style="whiteSpace=wrap;html=1;align=center;" parent="1" vertex="1">
          <mxGeometry x="966" y="542" width="100" height="40" as="geometry" />
        </mxCell>
        <mxCell id="6sJl87-KyiJKdT4K7YQF-41" value="reward" style="shape=rhombus;perimeter=rhombusPerimeter;whiteSpace=wrap;html=1;align=center;" parent="1" vertex="1">
          <mxGeometry x="827" y="534.5" width="90" height="55" as="geometry" />
        </mxCell>
        <mxCell id="6sJl87-KyiJKdT4K7YQF-42" value="" style="shape=link;html=1;rounded=0;exitX=1;exitY=0.5;exitDx=0;exitDy=0;entryX=0;entryY=0.5;entryDx=0;entryDy=0;" parent="1" source="6sJl87-KyiJKdT4K7YQF-37" target="6sJl87-KyiJKdT4K7YQF-41" edge="1">
          <mxGeometry width="100" relative="1" as="geometry">
            <mxPoint x="846" y="615" as="sourcePoint" />
            <mxPoint x="946" y="615" as="targetPoint" />
          </mxGeometry>
        </mxCell>
        <mxCell id="6sJl87-KyiJKdT4K7YQF-43" value="" style="endArrow=classic;html=1;rounded=0;entryX=0;entryY=0.5;entryDx=0;entryDy=0;exitX=1;exitY=0.5;exitDx=0;exitDy=0;" parent="1" source="6sJl87-KyiJKdT4K7YQF-41" target="6sJl87-KyiJKdT4K7YQF-40" edge="1">
          <mxGeometry width="50" height="50" relative="1" as="geometry">
            <mxPoint x="866" y="635" as="sourcePoint" />
            <mxPoint x="916" y="585" as="targetPoint" />
          </mxGeometry>
        </mxCell>
        <mxCell id="6sJl87-KyiJKdT4K7YQF-44" value="Survey Record" style="whiteSpace=wrap;html=1;align=center;" parent="1" vertex="1">
          <mxGeometry x="966" y="345" width="100" height="40" as="geometry" />
        </mxCell>
        <mxCell id="6sJl87-KyiJKdT4K7YQF-45" value="has" style="shape=rhombus;perimeter=rhombusPerimeter;whiteSpace=wrap;html=1;align=center;" parent="1" vertex="1">
          <mxGeometry x="971" y="434" width="90" height="55" as="geometry" />
        </mxCell>
        <mxCell id="6sJl87-KyiJKdT4K7YQF-46" value="" style="endArrow=classic;html=1;rounded=0;entryX=0.5;entryY=0;entryDx=0;entryDy=0;exitX=0.5;exitY=1;exitDx=0;exitDy=0;" parent="1" source="6sJl87-KyiJKdT4K7YQF-45" target="6sJl87-KyiJKdT4K7YQF-40" edge="1">
          <mxGeometry width="50" height="50" relative="1" as="geometry">
            <mxPoint x="906" y="585" as="sourcePoint" />
            <mxPoint x="956" y="535" as="targetPoint" />
          </mxGeometry>
        </mxCell>
        <mxCell id="6sJl87-KyiJKdT4K7YQF-47" value="" style="shape=link;html=1;rounded=0;entryX=0.5;entryY=1;entryDx=0;entryDy=0;exitX=0.5;exitY=0;exitDx=0;exitDy=0;" parent="1" source="6sJl87-KyiJKdT4K7YQF-45" target="6sJl87-KyiJKdT4K7YQF-44" edge="1">
          <mxGeometry width="100" relative="1" as="geometry">
            <mxPoint x="886" y="445" as="sourcePoint" />
            <mxPoint x="986" y="445" as="targetPoint" />
          </mxGeometry>
        </mxCell>
        <mxCell id="6sJl87-KyiJKdT4K7YQF-48" value="Comment" style="whiteSpace=wrap;html=1;align=center;" parent="1" vertex="1">
          <mxGeometry x="1281" y="542" width="100" height="40" as="geometry" />
        </mxCell>
        <mxCell id="6sJl87-KyiJKdT4K7YQF-53" style="edgeStyle=orthogonalEdgeStyle;rounded=0;orthogonalLoop=1;jettySize=auto;html=1;exitX=0;exitY=0.5;exitDx=0;exitDy=0;entryX=1;entryY=0.5;entryDx=0;entryDy=0;" parent="1" source="6sJl87-KyiJKdT4K7YQF-51" target="6sJl87-KyiJKdT4K7YQF-21" edge="1">
          <mxGeometry relative="1" as="geometry" />
        </mxCell>
        <mxCell id="6sJl87-KyiJKdT4K7YQF-58" style="edgeStyle=orthogonalEdgeStyle;rounded=0;orthogonalLoop=1;jettySize=auto;html=1;exitX=0.5;exitY=0;exitDx=0;exitDy=0;entryX=0.5;entryY=1;entryDx=0;entryDy=0;shape=link;" parent="1" source="6sJl87-KyiJKdT4K7YQF-51" target="6sJl87-KyiJKdT4K7YQF-48" edge="1">
          <mxGeometry relative="1" as="geometry" />
        </mxCell>
        <mxCell id="6sJl87-KyiJKdT4K7YQF-51" value="has" style="shape=rhombus;perimeter=rhombusPerimeter;whiteSpace=wrap;html=1;align=center;" parent="1" vertex="1">
          <mxGeometry x="1286" y="864.5" width="90" height="55" as="geometry" />
        </mxCell>
        <mxCell id="6sJl87-KyiJKdT4K7YQF-56" style="edgeStyle=orthogonalEdgeStyle;rounded=0;orthogonalLoop=1;jettySize=auto;html=1;exitX=0;exitY=0.5;exitDx=0;exitDy=0;entryX=1;entryY=0.5;entryDx=0;entryDy=0;" parent="1" source="6sJl87-KyiJKdT4K7YQF-55" target="6sJl87-KyiJKdT4K7YQF-40" edge="1">
          <mxGeometry relative="1" as="geometry" />
        </mxCell>
        <mxCell id="6sJl87-KyiJKdT4K7YQF-57" style="edgeStyle=orthogonalEdgeStyle;rounded=0;orthogonalLoop=1;jettySize=auto;html=1;exitX=1;exitY=0.5;exitDx=0;exitDy=0;entryX=0;entryY=0.5;entryDx=0;entryDy=0;shape=link;" parent="1" source="6sJl87-KyiJKdT4K7YQF-55" target="6sJl87-KyiJKdT4K7YQF-48" edge="1">
          <mxGeometry relative="1" as="geometry" />
        </mxCell>
        <mxCell id="6sJl87-KyiJKdT4K7YQF-55" value="give" style="shape=rhombus;perimeter=rhombusPerimeter;whiteSpace=wrap;html=1;align=center;" parent="1" vertex="1">
          <mxGeometry x="1131" y="534.5" width="90" height="55" as="geometry" />
        </mxCell>
        <mxCell id="6sJl87-KyiJKdT4K7YQF-59" value="Reply" style="whiteSpace=wrap;html=1;align=center;" parent="1" vertex="1">
          <mxGeometry x="1278" y="325" width="100" height="40" as="geometry" />
        </mxCell>
        <mxCell id="6sJl87-KyiJKdT4K7YQF-63" style="edgeStyle=orthogonalEdgeStyle;rounded=0;orthogonalLoop=1;jettySize=auto;html=1;exitX=0.5;exitY=0;exitDx=0;exitDy=0;entryX=0.5;entryY=1;entryDx=0;entryDy=0;shape=link;" parent="1" source="6sJl87-KyiJKdT4K7YQF-60" target="6sJl87-KyiJKdT4K7YQF-59" edge="1">
          <mxGeometry relative="1" as="geometry" />
        </mxCell>
        <mxCell id="6sJl87-KyiJKdT4K7YQF-60" value="has" style="shape=rhombus;perimeter=rhombusPerimeter;whiteSpace=wrap;html=1;align=center;" parent="1" vertex="1">
          <mxGeometry x="1283" y="415" width="90" height="55" as="geometry" />
        </mxCell>
        <mxCell id="6sJl87-KyiJKdT4K7YQF-64" style="edgeStyle=orthogonalEdgeStyle;rounded=0;orthogonalLoop=1;jettySize=auto;html=1;exitX=0.5;exitY=1;exitDx=0;exitDy=0;entryX=0.463;entryY=-0.106;entryDx=0;entryDy=0;entryPerimeter=0;" parent="1" source="6sJl87-KyiJKdT4K7YQF-60" target="6sJl87-KyiJKdT4K7YQF-48" edge="1">
          <mxGeometry relative="1" as="geometry" />
        </mxCell>
        <mxCell id="6sJl87-KyiJKdT4K7YQF-68" style="edgeStyle=orthogonalEdgeStyle;rounded=0;orthogonalLoop=1;jettySize=auto;html=1;exitX=0.5;exitY=1;exitDx=0;exitDy=0;entryX=0.75;entryY=0;entryDx=0;entryDy=0;" parent="1" source="6sJl87-KyiJKdT4K7YQF-65" target="6sJl87-KyiJKdT4K7YQF-40" edge="1">
          <mxGeometry relative="1" as="geometry" />
        </mxCell>
        <mxCell id="6sJl87-KyiJKdT4K7YQF-69" style="edgeStyle=orthogonalEdgeStyle;rounded=0;orthogonalLoop=1;jettySize=auto;html=1;exitX=0.5;exitY=0;exitDx=0;exitDy=0;entryX=0;entryY=0.5;entryDx=0;entryDy=0;shape=link;" parent="1" source="6sJl87-KyiJKdT4K7YQF-65" target="6sJl87-KyiJKdT4K7YQF-59" edge="1">
          <mxGeometry relative="1" as="geometry" />
        </mxCell>
        <mxCell id="6sJl87-KyiJKdT4K7YQF-65" value="give" style="shape=rhombus;perimeter=rhombusPerimeter;whiteSpace=wrap;html=1;align=center;" parent="1" vertex="1">
          <mxGeometry x="1121" y="434" width="90" height="55" as="geometry" />
        </mxCell>
        <mxCell id="6sJl87-KyiJKdT4K7YQF-72" value="moderator-id" style="ellipse;whiteSpace=wrap;html=1;align=center;fontStyle=4;" parent="1" vertex="1">
          <mxGeometry x="850" y="1160" width="100" height="40" as="geometry" />
        </mxCell>
        <mxCell id="6sJl87-KyiJKdT4K7YQF-73" value="task-id" style="ellipse;whiteSpace=wrap;html=1;align=center;fontStyle=4;" parent="1" vertex="1">
          <mxGeometry x="541" y="1110" width="100" height="40" as="geometry" />
        </mxCell>
        <mxCell id="6sJl87-KyiJKdT4K7YQF-74" value="question-id" style="ellipse;whiteSpace=wrap;html=1;align=center;fontStyle=4;" parent="1" vertex="1">
          <mxGeometry x="250" y="872" width="100" height="40" as="geometry" />
        </mxCell>
        <mxCell id="6sJl87-KyiJKdT4K7YQF-75" value="article-id" style="ellipse;whiteSpace=wrap;html=1;align=center;fontStyle=4;" parent="1" vertex="1">
          <mxGeometry x="850" y="810" width="100" height="40" as="geometry" />
        </mxCell>
        <mxCell id="6sJl87-KyiJKdT4K7YQF-76" value="Attribute" style="ellipse;whiteSpace=wrap;html=1;align=center;fontStyle=4;" parent="1" vertex="1">
          <mxGeometry x="1510" y="542" width="100" height="40" as="geometry" />
        </mxCell>
        <mxCell id="6sJl87-KyiJKdT4K7YQF-77" value="Attribute" style="ellipse;whiteSpace=wrap;html=1;align=center;fontStyle=4;" parent="1" vertex="1">
          <mxGeometry x="1240" y="190" width="100" height="40" as="geometry" />
        </mxCell>
        <mxCell id="6sJl87-KyiJKdT4K7YQF-78" value="Attribute" style="ellipse;whiteSpace=wrap;html=1;align=center;fontStyle=4;" parent="1" vertex="1">
          <mxGeometry x="871" y="240" width="100" height="40" as="geometry" />
        </mxCell>
        <mxCell id="6sJl87-KyiJKdT4K7YQF-79" value="user-id" style="ellipse;whiteSpace=wrap;html=1;align=center;fontStyle=4;" parent="1" vertex="1">
          <mxGeometry x="840" y="600" width="100" height="40" as="geometry" />
        </mxCell>
        <mxCell id="6sJl87-KyiJKdT4K7YQF-80" value="Attribute" style="ellipse;whiteSpace=wrap;html=1;align=center;fontStyle=4;" parent="1" vertex="1">
          <mxGeometry x="590" y="440" width="100" height="40" as="geometry" />
        </mxCell>
        <mxCell id="6sJl87-KyiJKdT4K7YQF-81" value="Attribute" style="ellipse;whiteSpace=wrap;html=1;align=center;fontStyle=4;" parent="1" vertex="1">
          <mxGeometry x="600" y="790" width="100" height="40" as="geometry" />
        </mxCell>
        <mxCell id="dPGwyMM_JcIyDgCakg1t-1" value="email" style="ellipse;whiteSpace=wrap;html=1;align=center;" vertex="1" parent="1">
          <mxGeometry x="1000" y="1160" width="100" height="40" as="geometry" />
        </mxCell>
        <mxCell id="dPGwyMM_JcIyDgCakg1t-2" value="password" style="ellipse;whiteSpace=wrap;html=1;align=center;" vertex="1" parent="1">
          <mxGeometry x="1150" y="1150" width="100" height="40" as="geometry" />
        </mxCell>
        <mxCell id="dPGwyMM_JcIyDgCakg1t-4" value="" style="endArrow=none;html=1;rounded=0;entryX=0.25;entryY=1;entryDx=0;entryDy=0;exitX=0.5;exitY=0;exitDx=0;exitDy=0;" edge="1" parent="1" source="6sJl87-KyiJKdT4K7YQF-72" target="6sJl87-KyiJKdT4K7YQF-25">
          <mxGeometry relative="1" as="geometry">
            <mxPoint x="760" y="1170" as="sourcePoint" />
            <mxPoint x="920" y="1170" as="targetPoint" />
          </mxGeometry>
        </mxCell>
        <mxCell id="dPGwyMM_JcIyDgCakg1t-5" value="fullname" style="ellipse;whiteSpace=wrap;html=1;align=center;" vertex="1" parent="1">
          <mxGeometry x="800" y="660" width="100" height="40" as="geometry" />
        </mxCell>
        <mxCell id="dPGwyMM_JcIyDgCakg1t-6" value="email" style="ellipse;whiteSpace=wrap;html=1;align=center;" vertex="1" parent="1">
          <mxGeometry x="890" y="700" width="100" height="40" as="geometry" />
        </mxCell>
        <mxCell id="dPGwyMM_JcIyDgCakg1t-7" value="password" style="ellipse;whiteSpace=wrap;html=1;align=center;" vertex="1" parent="1">
          <mxGeometry x="1111" y="600" width="100" height="40" as="geometry" />
        </mxCell>
        <mxCell id="dPGwyMM_JcIyDgCakg1t-8" value="title" style="ellipse;whiteSpace=wrap;html=1;align=center;" vertex="1" parent="1">
          <mxGeometry x="910" y="760" width="100" height="40" as="geometry" />
        </mxCell>
        <mxCell id="dPGwyMM_JcIyDgCakg1t-9" value="subtitle" style="ellipse;whiteSpace=wrap;html=1;align=center;" vertex="1" parent="1">
          <mxGeometry x="1016" y="750" width="100" height="40" as="geometry" />
        </mxCell>
        <mxCell id="dPGwyMM_JcIyDgCakg1t-11" value="description" style="ellipse;whiteSpace=wrap;html=1;align=center;" vertex="1" parent="1">
          <mxGeometry x="1121" y="760" width="100" height="40" as="geometry" />
        </mxCell>
        <mxCell id="dPGwyMM_JcIyDgCakg1t-12" value="img-url" style="ellipse;whiteSpace=wrap;html=1;align=center;" vertex="1" parent="1">
          <mxGeometry x="1143" y="811" width="100" height="40" as="geometry" />
        </mxCell>
        <mxCell id="dPGwyMM_JcIyDgCakg1t-13" value="address" style="ellipse;whiteSpace=wrap;html=1;align=center;" vertex="1" parent="1">
          <mxGeometry x="1150" y="650" width="100" height="40" as="geometry" />
        </mxCell>
        <mxCell id="dPGwyMM_JcIyDgCakg1t-14" value="question title" style="ellipse;whiteSpace=wrap;html=1;align=center;" vertex="1" parent="1">
          <mxGeometry x="320" y="940" width="100" height="40" as="geometry" />
        </mxCell>
        <mxCell id="dPGwyMM_JcIyDgCakg1t-17" value="option" style="ellipse;shape=doubleEllipse;margin=3;whiteSpace=wrap;html=1;align=center;" vertex="1" parent="1">
          <mxGeometry x="460" y="940" width="100" height="40" as="geometry" />
        </mxCell>
        <mxCell id="dPGwyMM_JcIyDgCakg1t-18" value="option name" style="ellipse;whiteSpace=wrap;html=1;align=center;" vertex="1" parent="1">
          <mxGeometry x="400" y="1007" width="100" height="40" as="geometry" />
        </mxCell>
        <mxCell id="dPGwyMM_JcIyDgCakg1t-19" value="carbon value" style="ellipse;whiteSpace=wrap;html=1;align=center;" vertex="1" parent="1">
          <mxGeometry x="512" y="1007" width="100" height="40" as="geometry" />
        </mxCell>
        <mxCell id="dPGwyMM_JcIyDgCakg1t-20" value="phone-number" style="ellipse;whiteSpace=wrap;html=1;align=center;" vertex="1" parent="1">
          <mxGeometry x="1111" y="700" width="100" height="40" as="geometry" />
        </mxCell>
        <mxCell id="dPGwyMM_JcIyDgCakg1t-21" value="streak-day" style="ellipse;whiteSpace=wrap;html=1;align=center;" vertex="1" parent="1">
          <mxGeometry x="1000" y="700" width="100" height="40" as="geometry" />
        </mxCell>
      </root>
    </mxGraphModel>
  </diagram>
</mxfile>
